# xmcd CD database file
#
# Track frame offsets:
#	150
#	24262
#	43800
#	70950
#
# Disc length: 1268 seconds
#
# Revision: 2
# Processed by: cddbd v1.5.1PL0 Copyright (c) Steve Scherf et al.
# Submitted via: CDex 1.51
#
DISCID=2e04f204
DTITLE=LINDBERG - 願いがかなうように (Single)
DYEAR=1999
DGENRE=Pop
TTITLE0=願いがかなうように
TTITLE1=シアワセ
TTITLE2=Every Little Thing Every Precious Thing (Another Version)
TTITLE3=願いがかなうように (Instrumental)
EXTD=YEAR: 1999
EXTT0=
EXTT1=
EXTT2=
EXTT3=
PLAYORDER=
